<svg xmlns="http://www.w3.org/2000/svg" height="1em" width="1em" focusable="false" fill="currentColor" viewBox="0 0 24 24" aria-labelledby="instagram-12" role="img" aria-hidden="false">
    <title id="instagram-12">instagram</title>
    <path d="M11.949 9.911a2.336 2.336 0 0 0-2.334 2.334c0 1.287 1.05 2.334 2.334 2.334s2.334-1.047 2.334-2.334a2.336 2.336 0 0 0-2.334-2.334z"></path>
    <path d="M17.407 8.118a2.363 2.363 0 0 0-1.331-1.33c-.919-.363-3.109-.282-4.127-.282s-3.205-.084-4.127.281a2.362 2.362 0 0 0-1.33 1.331c-.363.919-.282 3.109-.282 4.127 0 1.018-.084 3.205.282 4.127a2.363 2.363 0 0 0 1.33 1.33c.919.363 3.109.282 4.127.282s3.205.084 4.127-.281a2.362 2.362 0 0 0 1.33-1.331c.366-.919.282-3.109.282-4.127 0-1.018.084-3.205-.281-4.127zm-5.458 7.716a3.584 3.584 0 0 1-3.59-3.589c0-1.987 1.603-3.59 3.59-3.59s3.59 1.603 3.59 3.59a3.584 3.584 0 0 1-3.59 3.59zm3.736-6.488a.837.837 0 1 1 0-1.674.837.837 0 0 1 0 1.674z"></path>
    <path d="M12 0C5.373 0 0 5.373 0 12s5.373 12 12 12 12-5.373 12-12S18.627 0 12 0zm6.9 15.132c-.056 1.121-.313 2.114-1.131 2.933-.818.822-1.812 1.078-2.933 1.13-1.156.066-4.62.066-5.777 0-1.121-.055-2.111-.312-2.933-1.13-.822-.818-1.078-1.812-1.13-2.933-.066-1.156-.066-4.62 0-5.777.055-1.121.308-2.115 1.13-2.933s1.815-1.075 2.933-1.128c1.156-.065 4.62-.065 5.777 0 1.121.056 2.115.313 2.933 1.131.822.819 1.078 1.812 1.13 2.934.066 1.155.066 4.617 0 5.773z"></path>
</svg>