<?xml version="1.0" ?>
<svg version="1.1" id="user" width="48" height="32" viewBox="0 0 48 32" xmlns="http://www.w3.org/2000/svg">
    <rect width="46.6" height="30.6" x="0.7" y="0.7" fill="#fff" rx="3.301"></rect>
    <path fill="#ddd" d="M43.999 1.4A2.604 2.604 0 0 1 46.6 4.001V28a2.604 2.604 0 0 1-2.601 2.601H4A2.604 2.604 0 0 1 1.4 27.999V4A2.604 2.604 0 0 1 4.001 1.4H44m0-1.4H4A4.001 4.001 0 0 0 0 4.001V28A4.001 4.001 0 0 0 4.001 32H44A4.001 4.001 0 0 0 48 27.999V4A4.001 4.001 0 0 0 43.999 0z"></path>
    <path fill="#2872b9" fill-rule="evenodd" d="M12 4v24h24V4zm23.987 14.024-1.77 1.89 1.77 1.909v1.327l-3.068-3.25 3.068-3.284zm0-1.475h-2.32l-1.928 2.127-1.924-2.127h-8.099v6.71h8.032l1.938-2.148 1.958 2.149h2.343v.989h-2.825l-1.501-1.657-1.49 1.663-9.49-.02v-7.633h-3.076l3.79-8.6h3.69l1.295 2.943V8.002h4.555l.785 2.205.788-2.205h3.479v.901h-2.75l-1.486 4.132-1.477-4.122-2.871-.01v6.643l-2.937-6.642h-2.36L19.13 15.61h2.042l.562-1.343h3.044l.561 1.343h2.093v-.001h1.777v-4.606l1.713 4.606h1.623l1.678-4.59v4.605l1.765-.015v.04zm-12.428 5.146v-1.03h3.755v-1.52H23.56v-1.05h3.847V16.58l3.12 3.32-3.12 3.33v-1.535zm.589-8.933h-1.786l.893-2.135z"></path>
    <path fill="#fff" fill-rule="evenodd" d="m24.148 12.762-.893-2.135-.893 2.135h1.786z"></path>
    <path fill="#fff" fill-rule="evenodd" d="m33.644 23.26-1.958-2.149-1.938 2.149h-8.032v-6.711h8.099l1.924 2.127 1.929-2.127h2.319V15.608l-1.765.015v-4.605l-1.678 4.59h-1.623l-1.713-4.606v4.606H27.43l.001.001h-2.093l-.561-1.343h-3.044l-.562 1.343h-2.042l2.978-6.705h2.359l2.937 6.642V8.903l2.871.01 1.477 4.122 1.486-4.132h2.75v-.901h-3.479l-.788 2.205-.785-2.205H26.38v2.943l-1.296-2.943h-3.689l-3.79 8.6h3.076v7.633l9.49.02 1.49-1.663 1.501 1.657h2.825v-.989h-2.343z"></path>
    <path fill="#fff" fill-rule="evenodd" d="m35.987 16.616-3.068 3.285 3.068 3.249v-1.327l-1.77-1.908 1.77-1.891v-1.408zM30.526 19.901l-3.12-3.321v1.515h-3.847v1.049h3.755v1.521h-3.755v1.03h3.847v1.534l3.12-3.328z"></path>
</svg>