<?xml version="1.0" ?>
<svg version="1.1" id="user" width="48" height="32" viewBox="0 0 48 32" xmlns="http://www.w3.org/2000/svg">
    <rect width="46.6" height="30.6" x="0.7" y="0.7" fill="#fff" rx="3.3"></rect>
    <path fill="#ddd" d="M44 1.4A2.61 2.61 0 0 1 46.6 4v24a2.61 2.61 0 0 1-2.6 2.6H4A2.61 2.61 0 0 1 1.4 28V4A2.61 2.61 0 0 1 4 1.4zM44 0H4a4 4 0 0 0-4 4v24a4 4 0 0 0 4 4h40a4 4 0 0 0 4-4V4a4 4 0 0 0-4-4z"></path>
    <path fill="#f60" d="M28 13.94s1-3-.63-4.76a5.4 5.4 0 0 0-4.13-1.5l.11-.52a1 1 0 0 0 0-.41.6.6 0 0 0-.35-.44.71.71 0 0 0-1 .25c-.06.1-.88 2.25-.88 2.25s-.5.75.51 1.25 1.68.81 1.68.81 1 .5 1.38-.37c.29-.69-.33-1-.61-1.09a.13.13 0 0 1 0-.25 1.15 1.15 0 0 1 .47.09 3.51 3.51 0 0 1 2.12 1.62 5.55 5.55 0 0 1-.12 2.25z"></path>
    <path fill="#00a0b6" d="M20 10.09s-1 3 .63 4.75a5.38 5.38 0 0 0 4.13 1.51l-.11.51a1 1 0 0 0 0 .42.6.6 0 0 0 .35.44.72.72 0 0 0 1-.25c.06-.11.88-2.25.88-2.25s.5-.75-.51-1.25-1.68-.82-1.68-.82-1-.5-1.38.38c-.29.68.33 1 .61 1.09a.13.13 0 0 1 0 .25 1.15 1.15 0 0 1-.47-.09 3.49 3.49 0 0 1-2.12-1.63 5.55 5.55 0 0 1 .12-2.25z"></path>
    <path fill="#2e2e2e" d="m8.54 21.64-.19 1.53a1.36 1.36 0 0 0-1-.44A1.19 1.19 0 0 0 6.18 24a1 1 0 0 0 1 1.06 1.5 1.5 0 0 0 1-.38L8 26.25a3.7 3.7 0 0 1-1.3.26 2.3 2.3 0 0 1-2.34-2.45 2.65 2.65 0 0 1 2.69-2.76 3.32 3.32 0 0 1 1.49.34zm1.94 2.63a1.14 1.14 0 0 0 .26.84.74.74 0 0 0 .56.19.79.79 0 0 0 .46-.13.6.6 0 0 0 .24-.33h2a2.31 2.31 0 0 1-.54.89 3 3 0 0 1-2.14.78 2.65 2.65 0 0 1-1.88-.65 2.34 2.34 0 0 1-.68-1.74 2.8 2.8 0 0 1 .81-2 2.89 2.89 0 0 1 2.1-.78 2.52 2.52 0 0 1 1.86.68 2.61 2.61 0 0 1 .66 1.87v.42zm1.84-1a.86.86 0 0 0-.25-.58.79.79 0 0 0-.57-.2.9.9 0 0 0-.63.24 1.15 1.15 0 0 0-.27.54zm4.74-4.91-1 8h-1.81l1-8zm1.42 5.93a1.17 1.17 0 0 0 .25.84.78.78 0 0 0 .56.19.82.82 0 0 0 .47-.13.6.6 0 0 0 .24-.33h2a2.31 2.31 0 0 1-.54.89 3 3 0 0 1-2.14.78 2.69 2.69 0 0 1-1.88-.65 2.34 2.34 0 0 1-.67-1.74 2.8 2.8 0 0 1 .8-2 2.9 2.9 0 0 1 2.11-.78 2.53 2.53 0 0 1 1.86.68 2.61 2.61 0 0 1 .66 1.87v.42zm1.84-1a.83.83 0 0 0-.26-.58.79.79 0 0 0-.57-.2.94.94 0 0 0-.63.24 1 1 0 0 0-.26.54zm4.79-1.81-.15.67a2.16 2.16 0 0 1 1.65-.67h.35l-.2 1.68a1.54 1.54 0 0 0-.83-.22c-.74 0-1 .35-1.17 1.35l-.26 2.1h-1.82l.61-4.93zm4.26 0-.61 4.93H27l.6-4.93zm-.74-3a1 1 0 1 1-1 1 1 1 0 0 1 1-1.08zm3.55 4.44-.44 3.53h-1.81l.43-3.53h-.77l.16-1.4h.79l.18-1.62h1.82l-.2 1.62h1l-.16 1.4zm7-1.4-.6 4.93h-1.82l.13-.54a2.23 2.23 0 0 1-1.67.68 2.05 2.05 0 0 1-2-2.32 2.67 2.67 0 0 1 2.59-2.89 1.89 1.89 0 0 1 1.59.7v-.56zm-2 2.32a.94.94 0 0 0-1-1A1.23 1.23 0 0 0 35 24.05a1 1 0 0 0 1 1 1.21 1.21 0 0 0 1.16-1.29zm6.78-2L43.51 23a2.09 2.09 0 0 0-1.2-.42c-.41 0-.63.1-.63.3s.08.18.29.24l.59.15c.91.25 1.31.68 1.31 1.38 0 1.12-.89 1.83-2.29 1.83a3.82 3.82 0 0 1-2.27-.75l.69-1.16a2.62 2.62 0 0 0 1.54.57c.43 0 .67-.12.67-.34s-.09-.21-.28-.26l-.59-.13C40.39 24.19 40 23.74 40 23c0-1 .83-1.69 2.11-1.69a3.78 3.78 0 0 1 1.83.47z"></path>
</svg>

