<?xml version="1.0" ?>
<svg version="1.1" id="user" width="48" height="32" viewBox="0 0 48 32" xmlns="http://www.w3.org/2000/svg">
    <rect width="46.6" height="30.6" x="0.7" y="0.7" fill="#fff" rx="3.3"></rect>
    <path fill="#ddd" d="M44 1.4A2.61 2.61 0 0 1 46.6 4v24a2.61 2.61 0 0 1-2.6 2.6H4A2.61 2.61 0 0 1 1.4 28V4A2.61 2.61 0 0 1 4 1.4zM44 0H4a4 4 0 0 0-4 4v24a4 4 0 0 0 4 4h40a4 4 0 0 0 4-4V4a4 4 0 0 0-4-4z"></path>
    <path fill="#193c6b" d="M7.84 18.88a.72.72 0 1 0 .72-.72.72.72 0 0 0-.72.72m5-2.16A4.19 4.19 0 0 1 10.43 20a4.13 4.13 0 0 1-1.73.37h-.14a1.43 1.43 0 1 1 1.34-.93 3.92 3.92 0 0 0 .81-.43v-.08A2.16 2.16 0 1 0 8.56 21a5 5 0 0 0 2.44-.58 5.07 5.07 0 0 0 2.55-3.7zm-7.15 0H3.57a5.07 5.07 0 0 0 2.55 3.7 2.89 2.89 0 0 1-.44-1.54zm8.62-.72A5.76 5.76 0 1 1 2.8 16h3.6v1a2.87 2.87 0 0 1 5 1.35 3.49 3.49 0 0 0 .77-2.14V16zm-5.75-2.26H8.2V12.4a.72.72 0 0 0-.72.72.73.73 0 0 0 .35.62H6.9a1.44 1.44 0 0 1-.14-.62 1.38 1.38 0 0 1 .18-.7.55.55 0 0 0-.18 0 .72.72 0 0 0-.72.72.73.73 0 0 0 .35.62h-.93a1.44 1.44 0 0 1 1.3-2.06 1.46 1.46 0 0 1 .72.19 1.43 1.43 0 0 1 .72-.19 1.47 1.47 0 0 1 .36 0 1.34 1.34 0 0 1 .35 0 1.43 1.43 0 0 1 .72.19 1.49 1.49 0 0 1 .72-.19 1.44 1.44 0 0 1 1.3 2.06h-.93a.73.73 0 0 0 .35-.62.72.72 0 0 0-.72-.72.55.55 0 0 0-.18 0 1.38 1.38 0 0 1 .18.7 1.6 1.6 0 0 1-.13.62h-.93a.75.75 0 0 0 .34-.62.72.72 0 0 0-.72-.72v1.34zm-3.1.62a.43.43 0 0 1 .43-.43.44.44 0 0 1 .44.43.44.44 0 0 1-.44.44.44.44 0 0 1-.43-.44m5.32 0a.44.44 0 0 1 .44-.43.43.43 0 0 1 .43.43.44.44 0 0 1-.43.44.44.44 0 0 1-.44-.44m-1.33 0a.44.44 0 0 1 .44-.43.43.43 0 0 1 .43.43.44.44 0 0 1-.43.44.44.44 0 0 1-.44-.44m-1.33 0a.44.44 0 0 1 .44-.43.43.43 0 0 1 .43.43.44.44 0 0 1-.43.44.44.44 0 0 1-.44-.44m-1.33 0a.43.43 0 0 1 .43-.43.44.44 0 0 1 .44.43.44.44 0 0 1-.44.44.44.44 0 0 1-.43-.44M6.4 15h4.31v.72H6.4zm2-4.15v-.18h-.2v-.24h.24v-.24h.24v.24h.24v.24h-.24v.18a.36.36 0 0 1 .24.34.37.37 0 0 1-.36.36.36.36 0 0 1-.36-.36.36.36 0 0 1 .24-.34m12.83 7.78 1.49-.86-.14.67v.49c0 .4.18.56.63.56.61 0 .82-.28 1-1.05l.09-.48V18a1.92 1.92 0 0 0 0-.44c0-.37-.15-.56-.64-.56a4.09 4.09 0 0 0-2.27.93 2.14 2.14 0 0 1 2.39-2c1.19 0 1.86.48 1.86 1.58a2.28 2.28 0 0 1 0 .45.78.78 0 0 1 0 .16l-.08.48a2.13 2.13 0 0 1-2.4 2 1.84 1.84 0 0 1-1.61-.63 2.12 2.12 0 0 1-.11-.21 4.53 4.53 0 0 1-2.53.89A2.66 2.66 0 0 1 17 20c-1.42-1.34-.66-3.27-.09-4a3.45 3.45 0 0 1 3-1.5 4.3 4.3 0 0 1 1.36.29L21 16a2.07 2.07 0 0 0-2.37-.06 2.55 2.55 0 0 0-1.11 2.72c.21.69 1 .81 1.64.78a4.88 4.88 0 0 0 2.1-.74M29 17.06a5.23 5.23 0 0 0-1.39.2l-.57 3.17h-1.31l.78-4.38h1.24l-.06.36a2.36 2.36 0 0 1 1.54-.47zm3.13 0a5.23 5.23 0 0 0-1.39.2l-.57 3.17h-1.31l.77-4.38h1.25l-.07.36a2.37 2.37 0 0 1 1.54-.47zm11.49-.23c-.32 0-.71 0-.71.39 0 .19.15.26.51.41l.37.14c.76.3 1.07.64 1.07 1.26 0 1.14-1 1.51-2.2 1.51a7 7 0 0 1-1.54-.17l.13-.8c.58 0 .84.08 1.49.08.43 0 .77-.07.77-.45 0-.21-.1-.28-.57-.47l-.33-.13c-.67-.27-1-.65-1-1.29 0-1.16 1-1.37 2-1.37a6.59 6.59 0 0 1 1.57.17l-.14.81c-.55-.05-1.07-.09-1.41-.09M39.7 18l-.1.48c-.15.78-.36 1.05-1 1.05s-.6-.16-.6-.53a2.35 2.35 0 0 1 0-.5l.1-.48c.14-.77.37-1 1-1s.64.19.64.56a2.3 2.3 0 0 1 0 .48M39.26 16a2.12 2.12 0 0 0-2.38 1.94l-.09.42a2.85 2.85 0 0 0-.06.68c0 1.05.64 1.57 1.85 1.57a2.11 2.11 0 0 0 2.39-1.95l.09-.49a5.29 5.29 0 0 0 .06-.6c0-1.1-.67-1.57-1.86-1.57m-4.16 1.94h-1.62v-.07c.08-.47.28-.92.94-.92s.67.26.67.58a2.5 2.5 0 0 1 0 .41m-.5-1.94a2.21 2.21 0 0 0-2.48 2v.24A4 4 0 0 0 32 19c0 1.11.67 1.58 1.94 1.58a8.38 8.38 0 0 0 1.78-.19l.14-.89c-.82.06-1.2.08-1.66.08-.71 0-.9-.18-.9-.53a3.21 3.21 0 0 1 .05-.42h2.89a5.21 5.21 0 0 0 .13-1.06c0-.95-.52-1.6-1.81-1.6"></path>
</svg>
